<svg width="96" height="96" viewBox="0 0 96 96" fill="none" xmlns="http://www.w3.org/2000/svg">
<path d="M48 87C26.4956 87 9 69.4744 9 47.9344C9 36.225 14.1094 25.2469 23.0175 17.8312C23.4334 17.4829 23.914 17.22 24.4317 17.0577C24.9493 16.8953 25.494 16.8367 26.0343 16.8851C26.5747 16.9336 27.1002 17.0881 27.5807 17.34C28.0613 17.5918 28.4874 17.936 28.8348 18.3527C29.1821 18.7695 29.4438 19.2507 29.605 19.7687C29.7661 20.2868 29.8234 20.8316 29.7737 21.3718C29.7239 21.9121 29.5681 22.4372 29.3151 22.9171C29.0621 23.3971 28.717 23.8224 28.2994 24.1687C21.2775 30.0187 17.25 38.6812 17.25 47.9344C17.25 64.9256 31.0444 78.75 48 78.75C64.9556 78.75 78.75 64.9256 78.75 47.9344C78.7495 43.3934 77.7433 38.9089 75.8037 34.803C73.8641 30.6972 71.0391 27.0718 67.5319 24.1875C67.0974 23.8483 66.7354 23.4255 66.4671 22.9441C66.1988 22.4627 66.0297 21.9323 65.9698 21.3845C65.9098 20.8366 65.9603 20.2822 66.1182 19.7542C66.2761 19.2262 66.5383 18.7351 66.8891 18.3101C67.24 17.885 67.6725 17.5346 68.161 17.2795C68.6496 17.0244 69.1843 16.8698 69.7336 16.8248C70.2829 16.7798 70.8357 16.8454 71.3593 17.0176C71.8828 17.1898 72.3665 17.4652 72.7819 17.8275C77.2281 21.4844 80.809 26.0808 83.2674 31.2864C85.7258 36.492 87.0005 42.1775 87 47.9344C87 69.4744 69.5044 87 48 87Z" fill="white"/>
<path d="M48 51C46.906 51 45.8568 50.5654 45.0832 49.7918C44.3096 49.0182 43.875 47.969 43.875 46.875V13.125C43.875 12.031 44.3096 10.9818 45.0832 10.2082C45.8568 9.4346 46.906 9 48 9C49.094 9 50.1432 9.4346 50.9168 10.2082C51.6904 10.9818 52.125 12.031 52.125 13.125V46.875C52.125 47.969 51.6904 49.0182 50.9168 49.7918C50.1432 50.5654 49.094 51 48 51Z" fill="white"/>
</svg>
