<svg width="47" height="45" viewBox="0 0 47 45" fill="none" xmlns="http://www.w3.org/2000/svg">
<path d="M11.6667 19.3334V40.6667C11.6667 41.374 11.3857 42.0523 10.8856 42.5524C10.3855 43.0525 9.70724 43.3334 9 43.3334H3.66667C2.95942 43.3334 2.28115 43.0525 1.78105 42.5524C1.28095 42.0523 1 41.374 1 40.6667V22.0001C1 21.2928 1.28095 20.6146 1.78105 20.1145C2.28115 19.6144 2.95942 19.3334 3.66667 19.3334H11.6667ZM11.6667 19.3334C14.4956 19.3334 17.2088 18.2096 19.2091 16.2092C21.2095 14.2088 22.3333 11.4957 22.3333 8.66675V6.00008C22.3333 4.58559 22.8952 3.22904 23.8954 2.22885C24.8956 1.22865 26.2522 0.666748 27.6667 0.666748C29.0812 0.666748 30.4377 1.22865 31.4379 2.22885C32.4381 3.22904 33 4.58559 33 6.00008V19.3334H41C42.4145 19.3334 43.771 19.8953 44.7712 20.8955C45.7714 21.8957 46.3333 23.2523 46.3333 24.6667L43.6667 38.0001C43.2832 39.636 42.5557 41.0407 41.5937 42.0027C40.6318 42.9646 39.4876 43.4316 38.3333 43.3334H19.6667C17.5449 43.3334 15.5101 42.4906 14.0098 40.9903C12.5095 39.49 11.6667 37.4551 11.6667 35.3334" stroke="white" stroke-width="1.33333" stroke-linecap="round" stroke-linejoin="round"/>
</svg>
