<svg width="100" height="100" viewBox="0 0 100 100" fill="none" xmlns="http://www.w3.org/2000/svg">
<circle cx="50" cy="50" r="49" stroke="#E5E5E5" stroke-width="2"/>
<path fill-rule="evenodd" clip-rule="evenodd" d="M47.9508 32.0041C48.0679 32.5212 47.9748 33.0637 47.692 33.5123C47.4093 33.9608 46.9599 34.2787 46.4428 34.3961C46.0504 34.4854 45.6614 34.5895 45.2768 34.7081C45.0259 34.7856 44.7621 34.8129 44.5006 34.7884C44.2391 34.7639 43.985 34.6882 43.7527 34.5656C43.5205 34.4429 43.3147 34.2757 43.1471 34.0735C42.9795 33.8713 42.8533 33.638 42.7758 33.3871C42.6983 33.1361 42.6711 32.8724 42.6955 32.6109C42.72 32.3494 42.7957 32.0952 42.9184 31.863C43.041 31.6308 43.2082 31.425 43.4104 31.2573C43.6126 31.0897 43.8459 30.9636 44.0968 30.8861C44.5768 30.7367 45.0635 30.6067 45.5568 30.4961C45.813 30.4378 46.0782 30.4306 46.3372 30.4749C46.5962 30.5191 46.844 30.614 47.0663 30.754C47.2886 30.8941 47.4812 31.0766 47.6329 31.291C47.7847 31.5055 47.8927 31.7478 47.9508 32.0041ZM52.0508 32.0041C52.1682 31.487 52.4861 31.0377 52.9346 30.7549C53.3832 30.4721 53.9257 30.379 54.4428 30.4961C63.3508 32.5161 70.0028 40.4801 70.0028 50.0001C70.0028 61.0461 61.0468 70.0001 50.0028 70.0001C40.4808 70.0001 32.5168 63.3501 30.4968 54.4421C30.3931 53.93 30.4939 53.3978 30.7776 52.9591C31.0613 52.5204 31.5054 52.2101 32.0149 52.0946C32.5244 51.9791 33.0589 52.0676 33.504 52.3411C33.9491 52.6146 34.2696 53.0514 34.3968 53.5581C35.0333 56.3456 36.405 58.9116 38.3694 60.9892C40.3338 63.0668 42.8191 64.5801 45.5666 65.3715C48.3141 66.163 51.2235 66.2037 53.9921 65.4895C56.7607 64.7753 59.2873 63.3322 61.3091 61.3104C63.3309 59.2886 64.774 56.762 65.4882 53.9934C66.2024 51.2248 66.1617 48.3154 65.3703 45.5678C64.5788 42.8203 63.0656 40.3351 60.988 38.3707C58.9104 36.4063 56.3443 35.0345 53.5568 34.3981C53.0397 34.2803 52.5905 33.9619 52.308 33.513C52.0256 33.064 51.9331 32.5213 52.0508 32.0041ZM39.2288 35.4401C39.4077 35.6327 39.5468 35.8586 39.6383 36.105C39.7298 36.3514 39.7718 36.6134 39.762 36.8761C39.7521 37.1387 39.6906 37.3968 39.5809 37.6357C39.4713 37.8745 39.3156 38.0894 39.1228 38.2681C38.8268 38.5414 38.5422 38.8254 38.2688 39.1201C37.9055 39.4981 37.4083 39.7184 36.8841 39.7334C36.36 39.7484 35.851 39.557 35.4666 39.2005C35.0822 38.8439 34.8532 38.3506 34.829 37.8268C34.8047 37.303 34.9871 36.7907 35.3368 36.4001C35.6768 36.0321 36.0315 35.6767 36.4008 35.3341C36.5934 35.1552 36.8193 35.0161 37.0657 34.9246C37.3121 34.8331 37.5741 34.7911 37.8368 34.8009C38.0994 34.8108 38.3576 34.8723 38.5964 34.982C38.8353 35.0916 39.0502 35.2473 39.2288 35.4401ZM50.0008 38.0001C50.5313 38.0001 51.04 38.2108 51.415 38.5859C51.7901 38.9609 52.0008 39.4696 52.0008 40.0001V49.1721L57.4148 54.5861C57.7791 54.9633 57.9807 55.4685 57.9762 55.9929C57.9716 56.5173 57.7613 57.0189 57.3905 57.3897C57.0196 57.7605 56.518 57.9709 55.9936 57.9754C55.4692 57.98 54.964 57.7784 54.5868 57.4141L48.5868 51.4141C48.2117 51.0391 48.0009 50.5305 48.0008 50.0001V40.0001C48.0008 39.4696 48.2115 38.9609 48.5866 38.5859C48.9617 38.2108 49.4704 38.0001 50.0008 38.0001ZM33.3868 42.7761C33.8936 42.9324 34.3176 43.2835 34.5655 43.7523C34.8134 44.2212 34.865 44.7693 34.7088 45.2761C34.5902 45.6607 34.4861 46.0496 34.3968 46.4421C34.2696 46.9488 33.9491 47.3856 33.504 47.6591C33.0589 47.9326 32.5244 48.021 32.0149 47.9055C31.5054 47.79 31.0613 47.4798 30.7776 47.0411C30.4939 46.6024 30.3931 46.0701 30.4968 45.5581C30.6088 45.0647 30.7388 44.5781 30.8868 44.0981C31.0431 43.5913 31.3943 43.1673 31.8631 42.9194C32.3319 42.6715 32.88 42.6199 33.3868 42.7761Z" fill="black"/>
</svg>
